<svg xmlns="http://www.w3.org/2000/svg" width="517" height="128" viewBox="0 0 517 128" version="1.1">
	<path d="M 70.796 32.062 C 71.298 35.486, 71.360 35.466, 66.519 33.444 C 64.470 32.587, 61.603 32.070, 60.147 32.294 C 57.754 32.661, 57.806 32.715, 60.679 32.850 C 67.769 33.184, 68.787 38.197, 63.327 45.893 C 62.592 46.928, 60 43.484, 60 41.471 C 60 39.653, 59.577 39.298, 57.929 39.729 C 56.685 40.054, 54.724 39.433, 53.021 38.174 C 50.672 36.437, 50.088 36.328, 49.624 37.538 C 49.243 38.530, 49.728 39, 51.131 39 C 52.269 39, 54.730 40.530, 56.600 42.400 C 59.534 45.334, 60 46.466, 60 50.659 C 60 56.531, 57.867 58.441, 52.444 57.423 C 47.964 56.583, 47.619 55.870, 49.474 51.294 L 51.012 47.500 49.044 50 C 47.961 51.375, 46.800 53.726, 46.464 55.225 C 45.873 57.858, 45.771 57.896, 43.426 56.360 C 40.842 54.666, 40.114 50.524, 42.250 49.662 C 43.250 49.259, 43.250 49.142, 42.250 49.079 C 40.658 48.978, 40.625 45.775, 42.200 44.200 C 43.104 43.296, 43.111 43, 42.226 43 C 40.716 43, 38 48.233, 38 51.141 C 38 53.326, 37.963 53.334, 36.532 51.441 C 35.724 50.374, 35.049 48.563, 35.032 47.417 C 35.013 46.198, 34.344 45.333, 33.420 45.333 C 32.171 45.333, 31.971 46.031, 32.465 48.667 C 32.995 51.489, 32.801 52, 31.200 52 C 30.161 52, 28.453 52.981, 27.405 54.181 L 25.500 56.362 27.973 54.681 C 31.079 52.569, 33.907 52.546, 36.850 54.608 L 39.146 56.216 36.823 58.744 L 34.500 61.271 36.772 60.089 C 38.248 59.320, 41.097 59.138, 44.900 59.568 C 54.818 60.690, 55.308 62.400, 46.877 66.467 C 39.397 70.075, 36.250 70.525, 33.761 68.344 C 32.603 67.330, 32.016 67.113, 32.456 67.862 C 32.938 68.682, 32.708 69.610, 31.878 70.194 C 30.960 70.840, 32.668 70.973, 37 70.593 C 41.396 70.207, 45.407 69.047, 49.390 67.011 C 56.197 63.532, 57.535 63.345, 58.456 65.747 C 58.921 66.956, 58.261 68.219, 56.313 69.849 C 54.766 71.145, 52.487 73.056, 51.250 74.096 C 48.684 76.253, 48.331 80.457, 50.120 87.561 C 50.983 90.991, 50.955 92.349, 49.997 93.503 C 48.061 95.837, 44.101 95.304, 41.674 92.383 C 33.607 82.673, 33.597 82.665, 29.544 83.426 C 25.324 84.217, 25.827 85.664, 30.500 86.173 C 32.908 86.435, 33.523 86.994, 33.615 89 C 33.678 90.375, 34.055 92.266, 34.453 93.202 C 34.851 94.138, 34.915 95.329, 34.594 95.847 C 33.982 96.839, 36.151 98, 38.617 98 C 39.774 98, 39.846 97.580, 38.970 95.945 C 36.926 92.124, 38.560 91.735, 41.341 95.380 C 43.435 98.126, 44.828 99, 47.110 99 C 48.764 99, 49.858 99.420, 49.541 99.934 C 48.619 101.426, 53.408 100.528, 55.980 98.726 C 58.727 96.802, 60.397 97.389, 59.095 99.822 C 57.894 102.066, 55.189 104.386, 51.500 106.335 L 48.500 107.920 52.677 107.960 C 57.563 108.007, 60.255 105.356, 62.169 98.615 C 63.856 92.674, 65.369 91.568, 64.721 96.750 C 64.419 99.172, 64.580 100.760, 65.095 100.441 C 66.292 99.701, 66.244 102.186, 64.994 105.685 C 64.061 108.298, 64.096 108.362, 65.481 106.576 C 67.328 104.197, 68.369 98.966, 67.786 94.993 C 67.544 93.347, 67.718 92, 68.173 92 C 68.628 92, 69 90.875, 69 89.500 C 69 87.250, 69.400 87, 73 87 C 75.624 87, 77.667 87.667, 78.938 88.938 C 80.224 90.224, 81.009 90.476, 81.275 89.688 C 81.792 88.154, 74.457 81.334, 70.250 79.438 C 68.463 78.632, 67 77.625, 67 77.199 C 67 76.062, 76.128 67.421, 78.741 66.085 C 80.507 65.182, 81.613 65.266, 83.961 66.480 C 87.950 68.542, 89.727 71.784, 87.366 72.690 C 85.798 73.291, 85.816 73.409, 87.567 74.024 C 88.785 74.451, 90.109 76.676, 91.183 80.099 C 93.306 86.865, 93.430 83.228, 91.424 73 C 90.616 68.875, 89.852 64.825, 89.727 64 C 89.439 62.098, 93.594 61.418, 95.555 63.046 C 97.423 64.596, 97.401 69.003, 95.506 72.636 C 94.685 74.211, 94.010 76.175, 94.008 77 C 94.005 77.825, 94.793 76.925, 95.758 75 C 97.174 72.177, 98.040 71.536, 100.239 71.686 L 102.965 71.872 100.851 69.013 C 99.470 67.144, 98.910 65.249, 99.237 63.541 C 99.969 59.714, 96.909 58, 89.343 58 C 85.926 58, 81.913 58.463, 80.426 59.028 C 76.728 60.434, 76.199 59.481, 79.014 56.485 C 82.091 53.209, 87.583 51.733, 91.989 52.997 C 93.847 53.530, 95.555 53.778, 95.785 53.549 C 96.610 52.723, 87.857 50.911, 85.957 51.514 C 84.446 51.993, 84.153 51.765, 84.643 50.489 C 85.577 48.054, 89.071 47.099, 93.847 47.972 C 98.471 48.818, 99.349 47.113, 94.926 45.877 C 89.354 44.320, 86.977 44.914, 83.434 48.750 C 80.563 51.858, 79.804 52.243, 79 51 C 76.400 46.978, 79.261 40.312, 83.150 41.329 C 84.169 41.596, 84.751 41.405, 84.442 40.907 C 84.134 40.408, 83.234 40, 82.441 40 C 80.788 40, 80.476 36.442, 82.044 35.473 C 82.618 35.118, 84.306 35.611, 85.794 36.569 L 88.500 38.310 86.595 36.155 C 83.475 32.626, 79 33.932, 79 38.371 C 79 39.455, 78.213 41.212, 77.250 42.276 C 76.054 43.597, 75.474 45.966, 75.419 49.761 C 75.349 54.512, 74.944 55.651, 72.613 57.656 C 68.213 61.442, 67.031 60.680, 69.052 55.363 C 70.095 52.620, 70.086 52.612, 68.054 54.451 L 66.003 56.307 67.401 51.663 C 68.170 49.108, 70.229 44.484, 71.977 41.387 C 75.388 35.343, 75.448 31.845, 72.171 30.091 C 70.587 29.244, 70.418 29.486, 70.796 32.062 M 139.553 65.750 C 136.861 79.363, 134.458 91.287, 134.213 92.250 C 133.843 93.700, 134.454 94, 137.776 94 C 142.206 94, 142.481 93.646, 143.540 86.580 L 144.242 81.904 149.371 82.202 L 154.500 82.500 155.364 88.250 L 156.227 94 160.114 94 C 162.646 94, 164 93.545, 164 92.693 C 164 91.975, 161.750 80.188, 159 66.500 C 156.250 52.812, 154 41.475, 154 41.307 C 154 41.138, 151.851 41, 149.224 41 L 144.448 41 139.553 65.750 M 170 67.500 L 170 94 174 94 C 176.889 94, 178 93.583, 178 92.500 C 178 90.560, 179.409 90.583, 181.041 92.550 C 183.203 95.155, 189.884 94.060, 192.390 90.689 C 194.217 88.233, 194.482 86.468, 194.490 76.689 C 194.501 64.003, 193.889 60.906, 190.799 58.028 C 188.099 55.512, 186.429 55.487, 181.711 57.892 L 178 59.784 178 50.392 L 178 41 174 41 L 170 41 170 67.500 M 294.995 56.195 C 294.993 64.613, 294.699 76.563, 294.343 82.750 L 293.694 94 297.347 94 L 301 94 301 76 C 301 66.100, 301.343 58, 301.761 58 C 302.180 58, 304.040 65.537, 305.895 74.750 C 307.749 83.963, 309.480 92.063, 309.740 92.750 C 310.462 94.655, 314.788 94.270, 315.364 92.250 C 315.638 91.287, 317.356 83.121, 319.181 74.102 C 323.060 54.937, 323.702 55.571, 323.882 78.750 L 324 94 327.250 94.001 L 330.500 94.001 330.218 67.447 L 329.936 40.893 325.277 41.197 L 320.618 41.500 317.923 54 C 316.440 60.875, 314.687 69.123, 314.026 72.329 C 313.366 75.535, 312.540 77.873, 312.191 77.524 C 311.842 77.175, 309.943 68.927, 307.970 59.195 L 304.384 41.500 299.692 41.195 L 295 40.890 294.995 56.195 M 385 50 C 385 54.950, 384.844 59, 384.654 59 C 384.463 59, 382.867 58.282, 381.107 57.403 C 373.747 53.732, 369.885 58.531, 369.197 72.206 C 368.632 83.451, 369.568 89.519, 372.253 92.021 C 374.870 94.459, 380.646 94.631, 383.171 92.345 C 384.873 90.805, 385 90.805, 385 92.345 C 385 93.609, 385.945 94, 389 94 L 393 94 393 67.500 L 393 41 389 41 L 385 41 385 50 M 401 67.500 L 401 94 405 94 L 409 94 409 79.200 C 409 69.022, 409.375 64.025, 410.200 63.200 C 411.914 61.486, 415.678 61.718, 416.393 63.582 C 416.727 64.452, 417 71.652, 417 79.582 L 417 94 421.066 94 L 425.132 94 424.816 77.102 C 424.536 62.154, 424.280 59.962, 422.595 58.102 C 420.211 55.471, 417.428 55.442, 413.226 58.004 C 411.425 59.102, 409.738 60, 409.476 60 C 409.214 60, 409 55.725, 409 50.500 L 409 41 405 41 L 401 41 401 67.500 M 213.535 59.104 L 210 62.207 210 59.604 C 210 57.233, 209.642 57, 206 57 L 202 57 202 75.500 L 202 94 206 94 L 210 94 210 80.523 C 210 67.248, 210.038 67.021, 212.502 65.407 C 213.895 64.494, 216.111 63.979, 217.502 64.245 C 219.857 64.695, 220 64.473, 220 60.361 C 220 55.012, 218.522 54.725, 213.535 59.104 M 230.476 57.396 C 227.397 58.738, 225 62.524, 225 66.047 C 225 67.587, 225.693 68, 228.281 68 C 231.026 68, 231.751 67.498, 232.723 64.923 C 233.628 62.525, 234.394 61.918, 236.192 62.173 C 238.114 62.445, 238.550 63.187, 238.801 66.608 C 239.099 70.692, 239.068 70.732, 233.466 73.473 C 227.228 76.525, 224.010 80.654, 224.004 85.615 C 223.994 93.339, 232.301 96.824, 237.460 91.260 L 240 88.520 240 91.260 C 240 93.759, 240.330 94, 243.750 94.002 L 247.500 94.004 247 78.252 C 246.452 60.986, 245.828 58.833, 240.872 57.105 C 236.803 55.687, 234.233 55.759, 230.476 57.396 M 266.535 59.104 L 263 62.207 263 59.604 C 263 57.233, 262.642 57, 259 57 L 255 57 255 75.500 L 255 94 259 94 L 263 94 263 80.523 C 263 67.248, 263.038 67.021, 265.502 65.407 C 266.895 64.494, 269.111 63.979, 270.502 64.245 C 272.857 64.695, 273 64.473, 273 60.361 C 273 55.012, 271.522 54.725, 266.535 59.104 M 460.535 59.104 L 457 62.207 457 59.604 C 457 57.233, 456.642 57, 453 57 L 449 57 449 75.500 L 449 94 453 94 L 457 94 457 80.523 C 457 67.248, 457.038 67.021, 459.502 65.407 C 460.895 64.494, 463.111 63.979, 464.502 64.245 C 466.857 64.695, 467 64.473, 467 60.361 C 467 55.012, 465.522 54.725, 460.535 59.104 M 338.149 73.847 C 338.407 86.234, 338.863 91.132, 339.872 92.347 C 341.585 94.410, 347.780 94.481, 350.441 92.468 C 352.915 90.597, 354 90.607, 354 92.500 C 354 93.583, 355.111 94, 358 94 L 362 94 362 75.500 L 362 57 358 57 L 354 57 354 72.021 L 354 87.043 351.390 88.232 C 346.827 90.311, 346 87.713, 346 71.309 L 346 57 341.899 57 L 337.798 57 338.149 73.847 M 433 75.500 L 433 94 437 94 L 441 94 441 75.500 L 441 57 437 57 L 433 57 433 75.500 M 180.250 62.031 C 178.086 62.901, 178 63.410, 178 75.361 C 178 85.768, 178.257 87.885, 179.582 88.393 C 182.350 89.455, 184.767 89.050, 185.393 87.418 C 186.553 84.396, 186.060 63.460, 184.800 62.200 C 183.421 60.821, 183.275 60.815, 180.250 62.031 M 377.975 64.565 C 376.700 67.919, 376.718 83.127, 378 86.501 C 378.799 88.601, 379.557 89.069, 381.750 88.816 L 384.500 88.500 384.779 75.250 L 385.058 62 382.004 62 C 379.646 62, 378.728 62.585, 377.975 64.565" stroke="none" fill="#000000" fill-rule="evenodd"/>
</svg>