<?xml version="1.0" standalone="no"?>
<!DOCTYPE svg PUBLIC "-//W3C//DTD SVG 20010904//EN"
 "http://www.w3.org/TR/2001/REC-SVG-20010904/DTD/svg10.dtd">
<svg version="1.0" xmlns="http://www.w3.org/2000/svg"
 width="517.000000pt" height="128.000000pt" viewBox="0 0 517.000000 128.000000"
 preserveAspectRatio="xMidYMid meet">
<g transform="translate(0.000000,128.000000) scale(0.100000,-0.100000)"
fill="#000000" stroke="none">
<path d="M516 1018 c3 -4 11 -5 19 -1 21 7 19 12 -4 10 -11 0 -18 -5 -15 -9z"/>
<path d="M633 1001 c58 -6 77 -19 77 -53 0 -10 3 -17 8 -15 7 2 12 -6 12 -24
0 -5 -4 -7 -10 -4 -5 3 -10 0 -10 -7 0 -8 -6 -20 -12 -27 -7 -6 -13 -15 -13
-19 -1 -4 -7 -18 -15 -32 -7 -14 -13 -26 -12 -27 5 -8 1 -33 -5 -32 -21 3 -21
-4 -3 -36 14 -25 16 -36 8 -42 -8 -4 -1 -10 17 -15 20 -5 32 -3 37 5 6 9 10 9
20 -1 15 -15 28 -16 28 -1 0 5 -4 8 -8 5 -5 -3 -9 2 -9 10 0 10 4 11 11 4 7
-7 20 0 42 21 40 39 95 47 159 25 39 -13 45 -13 35 -1 -17 20 -76 38 -111 33
-32 -5 -37 3 -14 22 11 9 32 11 70 6 l56 -6 -15 22 c-19 29 -76 82 -76 72 0
-4 11 -20 25 -34 l25 -27 -30 5 c-46 7 -73 -5 -93 -39 -21 -37 -35 -30 -42 19
-3 24 2 36 17 46 18 13 25 13 52 -1 l31 -16 -19 22 c-11 11 -27 21 -38 21 -11
0 -18 7 -18 20 0 35 46 25 68 -15 8 -14 11 -16 12 -5 1 62 -94 83 -103 23 -1
-12 -9 -28 -16 -37 -7 -9 -15 -37 -18 -64 -7 -79 -12 -91 -43 -107 -24 -12
-30 -13 -30 -2 0 17 21 43 40 50 11 4 10 6 -4 6 -11 1 -28 -7 -39 -16 -19 -17
-20 -17 -8 5 6 12 10 22 7 22 -7 0 34 92 55 122 50 70 3 129 -101 126 l-55 -1
58 -6z"/>
<path d="M470 980 c0 -18 39 -30 99 -30 93 0 120 -37 75 -105 l-17 -27 -15 28
c-13 25 -13 31 1 56 9 15 12 28 6 28 -5 0 -15 -11 -21 -25 -17 -37 -41 -30
-96 25 -31 31 -56 37 -82 20 -10 -6 -6 -9 18 -8 32 1 62 -16 62 -35 0 -14 -79
0 -109 19 -18 12 -22 13 -19 2 6 -16 62 -37 106 -37 70 -2 122 -53 122 -122 0
-47 -21 -65 -70 -61 -31 3 -40 8 -40 23 0 32 23 69 47 75 13 4 23 10 23 15 0
13 -13 11 -40 -8 -28 -19 -41 -36 -55 -76 l-11 -29 -24 20 c-27 22 -22 52 10
52 13 0 18 4 14 11 -3 6 -15 9 -25 6 -24 -6 -25 16 -2 38 12 13 28 16 60 12
48 -5 52 -3 23 13 -28 15 -95 -4 -115 -33 -18 -26 -20 -68 -2 -87 10 -12 9
-12 -5 -1 -9 7 -22 29 -29 49 -11 33 -10 37 16 59 15 13 25 26 22 29 -2 3 -19
-7 -36 -22 -18 -14 -31 -23 -30 -18 4 23 -3 34 -20 34 -11 0 -22 -4 -25 -9 -4
-5 3 -7 14 -4 17 5 20 0 20 -30 0 -19 2 -42 6 -50 3 -10 -4 -16 -24 -20 -22
-4 -38 -19 -61 -57 -37 -60 -28 -67 13 -9 35 50 62 64 99 50 33 -13 34 -27 5
-52 -27 -22 -49 -24 -67 -6 -11 10 -11 8 -2 -10 14 -28 18 -28 70 -5 33 15 52
17 97 11 72 -10 83 -21 47 -44 -31 -21 -90 -23 -123 -5 -13 7 -20 7 -20 0 0
-5 18 -13 40 -16 47 -8 46 -13 -4 -24 -28 -6 -38 -4 -51 10 -23 25 -48 30 -71
13 -17 -13 -16 -14 15 -11 19 2 36 -2 38 -7 2 -7 -17 -11 -49 -10 -48 0 -54 2
-60 25 -6 23 -6 22 -5 -5 2 -25 6 -30 26 -30 14 0 26 -6 29 -13 2 -7 -5 -12
-17 -12 -25 0 -36 -17 -21 -34 7 -10 7 -15 0 -18 -6 -2 -3 -16 8 -38 14 -29
23 -36 57 -40 33 -4 41 -9 44 -30 3 -24 2 -24 -16 -7 -11 9 -23 17 -27 17 -5
0 6 -14 24 -30 18 -17 30 -34 26 -37 -3 -4 -20 7 -38 23 -33 30 -29 15 5 -23
20 -22 84 -50 93 -40 3 3 -2 17 -12 31 -26 40 -10 41 17 2 26 -38 53 -50 78
-36 14 8 14 9 -1 10 -9 0 -19 4 -22 9 -3 4 6 6 19 3 14 -2 25 -9 25 -15 0 -6
3 -7 6 -4 4 4 2 13 -5 20 -9 12 -7 14 11 13 19 -1 22 4 23 41 1 23 -2 40 -7
37 -5 -3 -6 -10 -3 -15 4 -5 2 -9 -2 -9 -13 0 -30 91 -23 120 6 24 6 24 18 5
12 -19 13 -19 6 4 -4 16 -3 21 5 17 6 -4 10 -4 9 1 -4 12 39 52 48 45 4 -4 3
-1 -1 7 -6 11 -4 13 8 8 12 -4 14 -2 10 11 -3 9 -10 23 -16 29 -13 17 0 46 18
40 10 -4 12 -1 8 10 -4 10 -2 14 5 9 6 -3 14 -1 18 5 4 7 3 9 -3 6 -13 -8 -27
20 -24 48 4 45 8 55 17 53 5 -2 8 -7 6 -11 -1 -5 2 -6 8 -2 6 3 8 11 4 16 -3
6 2 19 12 30 9 10 14 19 9 19 -4 0 -2 7 5 15 7 9 10 18 7 21 -3 4 1 13 9 21
11 11 12 19 4 28 -14 17 -96 35 -155 35 -24 0 -47 5 -50 10 -8 13 -25 13 -25
0z m136 -299 c-21 -23 -61 -24 -78 -2 -12 14 -11 14 5 2 9 -7 17 -9 17 -4 0 6
10 10 22 9 13 0 23 5 24 12 3 24 4 26 16 14 9 -9 8 -16 -6 -31z m-17 -63 c7
-13 10 -20 7 -17 -7 7 -18 -1 -85 -61 -31 -29 -33 -34 -26 -73 4 -23 8 -62 9
-87 1 -40 -2 -45 -22 -48 -16 -3 -31 6 -50 28 -95 112 -86 104 -122 92 -42
-15 -64 0 -56 38 3 15 0 33 -7 39 -9 10 -5 12 18 9 25 -2 30 1 29 17 0 18 6
20 67 18 73 -1 137 16 177 47 32 26 44 25 61 -2z m-213 -240 c4 -7 3 -8 -4 -4
-7 4 -12 2 -12 -5 0 -7 -3 -10 -6 -6 -6 5 3 27 11 27 2 0 7 -5 11 -12z m160
-27 c0 -11 -6 -17 -13 -14 -6 3 -9 11 -6 19 7 20 19 17 19 -5z"/>
<path d="M3330 875 c0 -2 6 -8 13 -14 10 -8 14 -7 14 2 0 8 -6 14 -14 14 -7 0
-13 -1 -13 -2z"/>
<path d="M1440 863 c-1 -5 -5 -28 -10 -53 -6 -25 -16 -76 -24 -115 -38 -194
-67 -331 -71 -345 -4 -12 4 -14 44 -12 l49 4 7 59 7 59 48 0 c53 0 49 6 65
-90 6 -34 8 -35 51 -35 35 0 44 3 41 15 -2 8 -26 129 -53 267 l-49 253 -52 0
c-29 0 -53 -3 -53 -7z m86 -30 c1 -7 2 -14 4 -15 1 -2 3 -14 4 -28 1 -14 6
-36 10 -49 5 -15 5 -21 -2 -17 -6 3 -4 -7 5 -24 8 -17 13 -40 10 -51 -3 -10
-1 -17 3 -14 12 7 24 -60 14 -76 -4 -8 -3 -10 4 -5 7 4 12 2 12 -3 0 -6 -6
-11 -12 -11 -9 -1 -8 -4 2 -13 8 -7 15 -23 14 -37 0 -14 4 -31 9 -37 6 -9 6
-13 -1 -13 -6 0 -4 -13 5 -31 11 -23 12 -34 4 -42 -15 -15 -33 3 -34 37 -1 14
-6 26 -12 26 -5 0 -3 4 5 10 12 8 12 10 -3 16 -10 4 -16 12 -14 18 3 7 -8 11
-29 10 -19 -1 -34 2 -34 8 0 5 8 7 19 3 12 -3 21 0 25 10 3 8 10 15 16 15 6 0
8 -4 5 -10 -3 -5 -1 -10 4 -10 12 0 14 13 4 24 -7 7 -13 29 -17 62 -1 11 -4
24 -7 30 -3 5 -4 25 -4 46 0 20 -3 34 -7 31 -5 -2 -8 4 -8 14 -1 10 -10 34
-21 53 -11 19 -17 26 -13 15 3 -11 13 -60 20 -110 8 -49 16 -102 20 -117 5
-27 4 -28 -33 -28 l-39 0 13 78 c7 42 15 91 18 108 4 21 1 33 -7 37 -8 2 -14
-4 -15 -17 -1 -11 -4 -34 -7 -51 -2 -16 -8 -52 -11 -80 -4 -27 -7 -52 -8 -55
-1 -3 6 -15 15 -28 11 -17 17 -20 21 -10 4 9 6 7 6 -4 1 -11 -6 -18 -17 -18
-10 0 -28 -11 -40 -25 -12 -14 -17 -25 -11 -25 12 0 1 -43 -12 -48 -5 -2 -7
-8 -3 -13 3 -5 -2 -9 -10 -9 -10 0 -16 9 -16 25 0 17 6 25 18 25 13 0 14 2 4
9 -17 10 -11 57 5 54 7 -2 10 4 7 12 -4 8 -10 12 -15 9 -14 -8 -11 13 4 28 7
7 14 22 15 33 1 11 3 31 6 45 2 14 5 31 5 38 1 7 6 10 12 6 8 -4 8 0 0 15 -7
11 -8 21 -3 21 5 0 8 13 7 30 -1 16 2 27 7 24 4 -3 9 7 9 23 1 15 3 35 4 43 1
8 3 23 4 33 1 14 8 18 34 15 17 -2 33 -9 33 -15z"/>
<path d="M1700 602 l0 -267 45 3 c52 5 58 28 7 26 l-31 -2 3 227 c4 285 3 270
23 242 10 -15 15 -46 16 -93 0 -61 2 -68 14 -52 8 11 13 48 13 101 l0 83 -45
0 -45 0 0 -268z m70 244 c0 -3 -4 -8 -10 -11 -5 -3 -10 -1 -10 4 0 6 5 11 10
11 6 0 10 -2 10 -4z"/>
<path d="M2947 758 c-4 -62 -7 -183 -7 -268 l0 -155 35 0 35 0 2 120 c1 66 3
138 4 160 2 45 -5 80 -14 70 -7 -7 -13 -34 -13 -57 0 -31 -17 -29 -21 2 -2 16
-2 27 1 25 3 -2 6 40 6 93 0 86 2 97 19 100 23 5 35 -7 42 -41 12 -68 15 -94
16 -114 0 -13 4 -23 10 -23 5 0 6 -5 2 -11 -10 -16 -27 17 -18 34 4 6 4 9 -1
5 -4 -4 -13 0 -20 9 -9 13 -14 13 -20 3 -5 -8 -4 -11 3 -6 13 8 12 10 53 -196
34 -166 34 -166 62 -171 16 -2 31 1 33 7 2 6 17 83 34 171 16 88 32 170 35
182 4 16 1 21 -8 17 -7 -2 -13 -12 -14 -22 -1 -22 -12 -73 -19 -92 -3 -8 -8
-26 -10 -40 -2 -14 -7 -36 -11 -50 -3 -14 -7 -27 -8 -30 0 -3 -6 -16 -13 -30
-12 -23 -12 -24 2 -6 18 23 21 14 5 -15 -5 -11 -15 -16 -21 -13 -7 4 -8 3 -4
-5 4 -6 11 -9 16 -6 4 3 6 -4 3 -15 -3 -11 -12 -20 -20 -20 -9 0 -13 6 -10 15
4 8 1 17 -4 21 -6 3 -9 15 -6 25 3 10 1 19 -5 21 -5 2 -11 23 -13 48 -2 32 -1
39 5 24 21 -52 74 -18 72 47 0 16 4 29 10 29 5 0 8 7 4 15 -3 8 0 28 6 43 6
15 13 44 15 64 2 20 10 56 16 80 11 36 17 43 37 43 24 0 25 -3 28 -69 3 -52 1
-66 -9 -61 -9 6 -10 4 -3 -6 5 -8 10 -59 11 -114 1 -55 4 -128 5 -162 2 -46
-1 -64 -11 -68 -9 -3 -11 0 -7 10 3 8 1 15 -5 15 -6 0 -7 5 -4 10 7 11 7 143
0 218 -2 24 0 40 6 37 5 -4 9 -1 9 4 0 6 -5 11 -10 11 -6 0 -10 6 -8 13 2 7
-1 15 -7 17 -15 7 -18 -49 -10 -215 l7 -150 35 0 36 0 -7 164 c-3 90 -6 211
-6 268 l0 103 -49 0 -49 0 -10 -47 c-6 -27 -23 -111 -38 -187 -20 -99 -30
-133 -34 -115 -4 13 -22 97 -40 187 l-33 162 -47 0 -47 0 -6 -112z m129 -133
c1 -14 -2 -25 -7 -25 -10 0 -12 33 -2 43 3 4 7 7 7 7 1 0 2 -11 2 -25z m-82
-37 c-4 -6 -6 -31 -5 -55 1 -26 -3 -43 -10 -43 -8 0 -8 -4 0 -14 7 -8 11 -35
9 -60 -3 -47 -13 -59 -22 -28 -7 21 1 158 9 172 3 5 0 10 -7 10 -8 1 -6 6 6
15 24 18 30 19 20 3z m89 -13 c4 -8 2 -17 -2 -20 -5 -2 -11 4 -14 15 -6 23 8
27 16 5z"/>
<path d="M3851 783 c0 -87 1 -88 32 -112 l32 -25 -22 25 c-22 25 -31 45 -15
35 4 -2 5 20 2 50 -4 35 -2 54 4 54 6 0 5 4 -2 9 -10 6 -10 10 3 21 11 9 15 9
15 1 0 -7 4 -10 8 -7 8 5 6 -67 -2 -106 -2 -10 0 -18 5 -18 5 0 9 -5 9 -11 0
-5 -5 -7 -12 -3 -8 5 -9 2 -4 -12 8 -19 8 -195 1 -203 -2 -2 0 -12 6 -22 6
-13 6 -19 -1 -19 -5 0 -10 -10 -10 -22 0 -19 2 -20 10 -8 8 13 10 12 10 -2 0
-10 -4 -18 -10 -18 -5 0 -7 -6 -4 -14 3 -7 -2 -16 -11 -20 -9 -3 -13 -2 -10 4
3 5 -4 8 -15 7 -11 -1 -20 -8 -20 -17 0 -12 10 -14 45 -12 l45 4 0 264 0 264
-45 0 -45 0 1 -87z"/>
<path d="M4005 606 l0 -264 44 -4 c26 -2 45 1 48 8 2 6 3 75 1 152 -3 139 -3
141 20 152 13 5 28 8 33 5 5 -4 9 -76 9 -161 l0 -154 40 0 c22 0 43 0 46 0 3
0 5 77 4 172 -1 143 -4 175 -17 190 -23 25 -85 24 -108 -2 -10 -11 -21 -20
-24 -20 -3 0 -4 43 -3 95 l4 95 -49 0 -48 0 0 -264z m59 229 c-4 -8 -2 -15 2
-15 5 0 8 -28 6 -63 -3 -48 0 -66 12 -76 14 -11 14 -15 1 -28 -11 -10 -16 -41
-17 -111 -3 -163 -4 -171 -11 -178 -18 -18 -22 22 -27 232 -4 189 -3 223 9
219 11 -4 11 -2 2 9 -9 11 -9 15 1 19 23 9 28 7 22 -8z m162 -200 c0 -33 2
-100 3 -150 3 -127 4 -124 -19 -122 -19 1 -20 8 -20 122 0 135 -12 195 -38
195 -15 0 -15 2 -2 10 8 5 29 8 45 7 30 -2 30 -3 31 -62z"/>
<path d="M4320 815 c0 -35 0 -35 45 -35 45 0 45 0 45 35 0 35 0 35 -45 35 -45
0 -45 0 -45 -35z m58 -10 c-3 -3 -13 -2 -22 1 -14 5 -15 9 -4 15 13 8 36 -6
26 -16z"/>
<path d="M1823 710 c-13 -5 -32 -24 -43 -42 -18 -29 -20 -48 -18 -146 1 -62 5
-115 10 -118 5 -3 6 -9 3 -14 -3 -4 11 -20 31 -35 28 -22 42 -26 69 -21 57 11
69 42 73 186 3 118 2 127 -20 160 -25 37 -62 48 -105 30z m81 -20 c19 -20 30
-227 15 -277 -12 -36 -11 -36 -33 -27 -16 6 -23 34 -8 34 4 0 6 50 6 111 -2
98 -4 113 -23 133 -12 12 -19 25 -16 27 6 7 52 5 59 -1z m-50 -46 c3 -9 6 -62
6 -118 0 -113 -10 -140 -47 -130 -22 6 -23 10 -23 128 0 68 3 126 7 129 12 13
51 7 57 -9z m30 -267 c16 -12 14 -13 -18 -14 -29 -1 -33 1 -23 13 15 17 19 17
41 1z"/>
<path d="M1862 672 c6 -7 14 -9 17 -5 4 4 10 11 14 14 5 4 -3 6 -16 5 -20 -1
-23 -4 -15 -14z"/>
<path d="M2010 531 l0 -191 48 0 47 0 -3 128 c-3 118 -2 129 17 146 12 11 34
19 51 18 29 -1 30 1 30 44 0 38 -3 44 -21 44 -12 0 -34 -14 -51 -32 l-30 -32
4 29 c3 29 2 30 -44 33 l-48 3 0 -190z m59 150 c7 -5 11 -13 8 -18 -7 -11 42
-10 64 1 8 4 5 1 -6 -8 -53 -40 -55 -45 -56 -145 -1 -142 -5 -161 -28 -146
-13 7 -16 325 -3 325 4 0 13 -4 21 -9z m111 0 c0 -17 -18 -21 -24 -6 -3 9 0
15 9 15 8 0 15 -4 15 -9z"/>
<path d="M2303 710 c-27 -11 -51 -46 -59 -88 l-6 -32 46 0 c42 0 46 2 46 24 0
13 7 29 15 36 22 18 45 -4 45 -44 0 -27 -6 -34 -51 -56 -71 -35 -99 -70 -99
-126 0 -36 5 -50 26 -69 36 -34 70 -32 105 6 l29 31 0 -28 c0 -27 3 -29 39
-29 l39 0 -5 160 c-6 205 -16 226 -113 224 -19 0 -45 -4 -57 -9z m129 -38 c19
-24 12 -37 -11 -19 -14 11 -14 10 -2 -5 7 -10 17 -16 21 -13 4 2 5 -34 3 -80
-3 -49 0 -98 6 -116 8 -24 8 -36 0 -45 -9 -11 -8 -14 2 -14 10 0 10 -3 1 -12
-18 -18 -37 6 -38 50 -3 108 -4 111 -24 117 -20 6 -20 7 5 27 31 24 29 52 -7
98 -42 53 0 64 44 12z m-79 14 c4 -10 -1 -13 -19 -11 -13 1 -24 -3 -23 -9 3
-29 -3 -42 -21 -43 -14 -1 -19 4 -17 20 2 24 21 42 52 50 11 2 21 5 21 6 1 0
4 -5 7 -13z m26 -272 c-15 -19 -45 -18 -53 2 -12 33 -5 57 27 86 l32 31 3 -52
c2 -30 -2 -59 -9 -67z m-64 88 c-13 -11 -19 -26 -17 -44 2 -16 -1 -28 -7 -28
-6 0 -11 -5 -11 -11 0 -5 4 -8 8 -5 5 3 14 -4 22 -14 8 -10 18 -16 24 -13 6 4
5 -1 -3 -10 -15 -18 -3 -23 17 -7 9 7 9 7 2 -2 -14 -17 -57 -17 -57 -1 0 6 5
9 10 6 6 -3 7 -1 3 5 -4 6 -13 9 -21 5 -9 -3 -15 1 -16 8 0 8 -2 26 -4 42 -2
18 0 25 7 21 7 -5 8 -2 3 6 -6 9 1 21 21 37 33 26 49 31 19 5z"/>
<path d="M2540 531 l0 -189 45 -4 45 -3 0 131 c0 118 2 133 20 149 11 10 33
18 50 17 29 -1 30 1 30 44 0 38 -3 44 -20 44 -26 0 -74 -46 -64 -62 4 -7 3 -8
-4 -4 -7 4 -12 20 -12 37 0 28 -2 29 -45 29 l-45 0 0 -189z m66 150 c-3 -4 3
-16 14 -26 19 -17 19 -19 3 -37 -12 -14 -18 -45 -22 -122 -3 -57 -3 -102 2
-99 9 5 9 0 1 -21 -3 -9 -12 -16 -20 -16 -11 0 -13 26 -11 129 1 71 -1 127 -4
126 -3 -2 -4 6 -3 18 1 12 3 30 3 40 1 10 9 17 22 17 11 0 18 -4 15 -9z m100
-8 c-2 -9 -12 -17 -23 -18 -25 -2 -20 22 5 28 10 3 18 5 19 6 1 0 0 -7 -1 -16z"/>
<path d="M2981 704 c0 -11 3 -14 6 -6 3 7 2 16 -1 19 -3 4 -6 -2 -5 -13z"/>
<path d="M3380 561 c0 -154 8 -207 33 -223 21 -14 61 -8 87 12 31 24 43 25 36
3 -5 -16 1 -18 39 -17 l46 1 2 192 2 192 -44 -3 -43 -3 1 -153 2 -152 -27 -10
c-21 -8 -29 -8 -36 2 -4 7 -8 82 -8 166 l0 152 -45 0 -45 0 0 -159z m60 109
c-6 -11 -7 -20 -3 -20 4 0 7 -54 7 -120 -1 -79 2 -120 9 -120 6 0 7 -3 4 -7
-4 -3 3 -13 15 -21 20 -15 20 -16 3 -22 -23 -8 -67 -1 -60 10 3 5 1 11 -4 14
-5 4 -10 73 -10 156 l0 150 25 0 c22 0 23 -2 14 -20z m150 10 c13 -9 13 -11 0
-20 -11 -7 -12 -10 -2 -10 11 0 13 -25 11 -118 -2 -64 0 -122 4 -129 4 -6 3
-14 -3 -18 -6 -4 -8 -10 -5 -15 3 -5 0 -12 -6 -16 -8 -5 -9 -3 -4 6 6 10 4 12
-8 7 -23 -9 -31 10 -10 22 10 6 13 11 8 11 -7 0 -11 50 -10 145 0 80 2 145 5
145 3 0 12 -5 20 -10z m-30 -284 c0 -2 -7 -7 -16 -10 -8 -3 -12 -2 -9 4 6 10
25 14 25 6z"/>
<path d="M3734 705 c-38 -26 -46 -65 -42 -199 3 -114 5 -128 25 -148 33 -32
89 -30 118 4 13 15 26 24 29 20 4 -3 4 2 0 12 -4 12 -4 17 2 13 6 -3 10 44 11
124 1 71 -1 128 -5 125 -4 -2 -13 2 -20 10 -7 8 -9 14 -5 14 4 1 -3 10 -16 20
-28 24 -68 26 -97 5z m30 -17 c-5 -9 -2 -8 9 1 10 8 20 11 24 8 8 -8 -17 -38
-27 -32 -4 2 -7 -3 -7 -13 0 -49 -3 -58 -14 -42 -8 12 -9 9 -4 -10 7 -28 7
-95 -1 -125 -4 -16 -3 -17 5 -5 9 13 11 13 11 -2 0 -10 -6 -18 -12 -18 -10 0
-9 -3 1 -9 7 -5 10 -14 7 -20 -4 -6 -2 -11 3 -11 6 0 11 -7 11 -15 0 -8 6 -15
14 -15 8 0 18 -6 22 -12 4 -7 4 -10 -1 -6 -4 4 -14 3 -22 -3 -10 -9 -13 -8
-13 1 0 8 -3 11 -6 8 -3 -3 -17 5 -31 18 -14 13 -23 27 -20 31 4 3 2 12 -4 20
-8 8 -8 13 -1 13 6 0 10 35 10 93 -1 102 1 113 22 138 17 20 35 25 24 7z m84
-160 c2 -120 2 -127 -18 -133 -41 -13 -50 9 -50 125 0 129 4 142 39 138 l26
-3 3 -127z"/>
<path d="M4320 528 l0 -193 45 0 45 0 0 193 0 192 -45 0 -45 0 0 -192z m69 -3
c-1 -91 -5 -165 -10 -165 -5 0 -9 6 -9 13 0 9 -2 9 -9 -1 -7 -11 -10 -10 -15
3 -8 22 -8 27 2 22 4 -3 6 62 4 144 -3 146 -3 149 18 149 21 0 21 -4 19 -165z"/>
<path d="M4490 718 c0 -2 -1 -87 -3 -191 l-2 -187 38 0 c20 0 40 1 43 3 3 1 5
58 5 128 -2 114 0 127 19 144 11 10 33 18 50 17 29 -1 30 1 30 44 0 33 -4 44
-16 44 -23 0 -52 -18 -64 -40 -9 -17 -8 -20 10 -20 11 0 19 5 18 11 -2 6 3 14
10 16 6 3 12 -3 12 -11 0 -10 -12 -19 -30 -22 -16 -4 -35 -13 -42 -22 -11 -13
-11 -15 2 -8 9 4 8 1 -2 -7 -15 -12 -18 -32 -18 -123 0 -60 -5 -116 -10 -124
-9 -13 -10 -13 -10 0 0 10 -3 11 -8 3 -4 -6 -7 63 -7 153 0 153 1 164 19 164
11 0 16 -5 13 -14 -3 -8 2 -16 11 -18 13 -4 17 2 17 29 0 32 -1 33 -42 33 -24
0 -43 -1 -43 -2z"/>
<path d="M819 694 c-28 -8 -46 -20 -46 -29 0 -11 4 -12 14 -4 7 6 20 9 28 5 9
-3 14 -2 11 3 -3 5 1 11 9 15 8 3 15 1 15 -5 0 -6 6 -7 13 -2 26 16 39 12 21
-8 -15 -17 -16 -24 -6 -40 7 -11 8 -19 2 -19 -5 0 -10 4 -10 9 0 11 -39 26
-59 22 -8 -1 -10 2 -5 11 4 7 -1 5 -12 -4 -16 -14 -23 -15 -33 -5 -10 9 -11 8
-6 -5 7 -17 -9 -26 -18 -10 -2 4 -3 2 -1 -5 1 -6 -19 -33 -45 -60 -46 -47 -47
-50 -32 -70 9 -11 33 -26 54 -32 30 -10 34 -15 24 -26 -6 -7 -15 -11 -19 -8
-14 8 -50 -18 -44 -32 3 -8 0 -17 -6 -21 -6 -4 -8 -3 -4 4 3 6 1 14 -5 18 -8
4 -9 3 -5 -5 4 -6 1 -14 -7 -17 -9 -3 -21 -19 -27 -35 -14 -32 -20 -35 -39
-16 -11 10 -13 10 -7 0 7 -12 -12 -18 -37 -14 -5 1 -6 -3 -2 -9 3 -5 1 -11 -4
-11 -20 -3 -26 -4 -37 -12 -7 -3 -32 -8 -57 -9 -25 -2 -43 -7 -40 -12 6 -9 64
-3 98 9 16 7 18 6 8 -6 -30 -31 -10 -28 29 5 23 20 45 36 50 36 18 0 6 -19
-32 -54 -40 -36 -40 -36 -78 -21 l-37 15 25 -20 c39 -30 73 -34 117 -11 22 11
46 28 53 38 13 16 12 16 -8 -1 l-22 -19 15 36 c8 20 15 46 15 57 0 12 7 28 15
36 8 9 15 11 15 5 0 -6 7 -8 15 -5 10 4 15 0 15 -12 0 -11 7 -30 15 -44 8 -14
19 -37 26 -52 6 -16 14 -28 18 -28 9 0 51 39 51 47 0 3 -8 -1 -18 -10 -30 -27
-42 -20 -42 23 0 44 17 53 37 21 7 -11 26 -22 44 -26 26 -6 36 -3 56 20 14 14
23 28 21 31 -3 2 -13 -5 -23 -16 -29 -31 -59 -25 -99 21 -38 45 -72 49 -62 7
3 -13 -1 -8 -10 11 -19 43 -12 61 23 61 38 0 73 -26 73 -54 0 -12 7 -31 15
-42 9 -12 14 -13 11 -4 -2 8 -7 30 -10 49 l-6 33 25 -16 c34 -22 87 -20 119 5
36 28 33 45 -3 20 -33 -24 -81 -27 -113 -8 -12 6 -42 31 -66 53 -24 23 -57 45
-74 48 -16 3 -28 10 -26 15 7 21 120 111 139 111 29 0 69 -30 69 -51 0 -19 -7
-22 -45 -20 -24 1 -55 -18 -39 -25 6 -3 28 -13 48 -23 44 -23 48 -18 5 8 l-30
19 36 4 c35 4 36 3 49 -41 17 -58 11 -74 -23 -67 l-26 6 25 -14 c43 -25 53 -5
45 89 -3 44 -13 93 -21 109 -11 24 -12 31 -2 38 7 4 19 6 26 3 8 -3 17 -5 22
-5 18 0 22 -61 6 -85 -9 -13 -16 -35 -16 -48 0 -26 22 -52 34 -39 4 4 14 -2
22 -12 14 -19 14 -19 14 1 0 21 -24 38 -40 28 -17 -11 -20 15 -5 45 17 34 19
34 46 19 11 -5 16 -15 13 -21 -4 -7 -3 -8 4 -4 13 8 5 36 -14 52 -17 14 -29
64 -16 64 6 0 16 -8 21 -17 6 -10 11 -13 11 -8 0 21 -34 57 -66 71 -41 17 -85
17 -145 -2z"/>
<path d="M756 507 c3 -10 9 -15 12 -12 3 3 0 11 -7 18 -10 9 -11 8 -5 -6z"/>
<path d="M3095 480 c-3 -5 -1 -10 4 -10 6 0 11 5 11 10 0 6 -2 10 -4 10 -3 0
-8 -4 -11 -10z"/>
<path d="M966 442 c-3 -5 1 -9 9 -9 8 0 12 4 9 9 -3 4 -7 8 -9 8 -2 0 -6 -4
-9 -8z"/>
<path d="M646 317 c-8 -40 -8 -49 3 -43 14 9 0 -48 -17 -66 -8 -10 -10 -18 -4
-18 26 0 52 53 52 105 0 58 -24 74 -34 22z"/>
</g>
</svg>
